<?xml version="1.0" standalone="no"?>
<!DOCTYPE svg PUBLIC "-//W3C//DTD SVG 20010904//EN"
 "http://www.w3.org/TR/2001/REC-SVG-20010904/DTD/svg10.dtd">
<svg version="1.0" xmlns="http://www.w3.org/2000/svg"
 width="2048.000000pt" height="2048.000000pt" viewBox="0 0 2048.000000 2048.000000"
 preserveAspectRatio="xMidYMid meet">
<metadata>
Created by potrace 1.14, written by Peter Selinger 2001-2017
</metadata>
<g transform="translate(0.000000,2048.000000) scale(0.100000,-0.100000)"
fill="#000000" stroke="none">
<path d="M13480 16410 c-592 -65 -1013 -367 -1143 -820 -39 -134 -50 -249 -44
-437 6 -183 26 -288 85 -434 190 -475 699 -729 1412 -706 439 14 765 131 1004
357 232 221 336 482 336 846 0 432 -160 733 -515 971 -140 94 -337 167 -545
203 -143 25 -450 35 -590 20z"/>
<path d="M640 15215 l0 -152 123 -7 c452 -25 742 -107 899 -255 127 -119 184
-267 229 -596 18 -125 26 -8370 9 -8610 -13 -180 -40 -356 -71 -460 -47 -157
-149 -294 -270 -363 -136 -77 -430 -142 -754 -167 -44 -3 -99 -8 -122 -11
l-43 -5 0 -151 0 -151 63 7 c328 33 2368 43 3197 16 552 -18 1296 -19 1505 -2
522 44 971 123 1393 248 1085 320 2005 963 2616 1828 550 779 885 1722 990
2791 53 534 45 1232 -20 1790 -155 1336 -643 2389 -1457 3143 -798 739 -1938
1155 -3397 1242 -465 27 -1001 23 -2655 -21 -933 -25 -1363 -18 -2172 35 l-63
4 0 -153z m4550 -149 c891 -80 1567 -302 2120 -697 444 -316 801 -766 1033
-1299 229 -527 387 -1156 466 -1865 83 -729 92 -1618 26 -2410 -87 -1033 -303
-1904 -616 -2480 -161 -296 -326 -515 -568 -755 -349 -348 -687 -555 -1176
-723 -469 -160 -962 -241 -1642 -268 -833 -34 -1209 86 -1348 430 -60 147 -98
360 -115 646 -8 126 -10 1412 -8 4305 3 3887 4 4133 21 4260 46 351 125 557
255 670 60 53 205 123 306 149 70 19 221 43 331 55 92 10 750 -4 915 -18z"/>
<path d="M14800 12524 c-157 -35 -489 -90 -711 -118 -446 -58 -1227 -87 -1756
-68 -291 11 -481 23 -605 37 l-48 6 0 -166 0 -165 63 0 c217 0 464 -81 595
-196 63 -55 159 -198 201 -298 69 -167 114 -383 131 -641 14 -209 13 -5203 0
-5390 -48 -638 -276 -873 -882 -911 l-108 -7 0 -160 0 -160 203 7 c111 3 339
11 507 16 168 5 422 15 565 21 328 15 1466 15 1770 1 127 -7 383 -17 570 -23
187 -6 406 -14 488 -17 l147 -7 0 161 0 161 -102 7 c-235 16 -360 45 -506 117
-215 105 -310 264 -369 619 -16 99 -18 323 -20 3653 -3 2803 -6 3547 -16 3546
-6 -1 -59 -12 -117 -25z"/>
<path d="M18197 6609 c-585 -42 -998 -315 -1161 -767 -55 -155 -70 -258 -70
-492 0 -236 10 -316 64 -485 141 -437 507 -708 1053 -780 154 -20 485 -20 626
0 254 36 464 112 636 228 80 55 227 197 280 272 131 184 199 409 212 695 21
489 -150 858 -508 1096 -208 139 -439 210 -759 234 -151 11 -202 11 -373 -1z"/>
</g>
</svg>
